<?xml version="1.0" encoding="utf-8"?>
<!-- Generator: Adobe Illustrator 16.0.0, SVG Export Plug-In . SVG Version: 6.00 Build 0)  -->
<!DOCTYPE svg PUBLIC "-//W3C//DTD SVG 1.1//EN" "http://www.w3.org/Graphics/SVG/1.1/DTD/svg11.dtd">
<svg version="1.1" id="Layer_1" xmlns="http://www.w3.org/2000/svg" xmlns:xlink="http://www.w3.org/1999/xlink" x="0px" y="0px"
	 width="128px" height="128px" viewBox="0 0 128 128" enable-background="new 0 0 128 128" xml:space="preserve">
<g>
	<g>
		<path fill="#282D33" d="M29.438,127.099C13.206,127.099,0,113.775,0,97.399c0-16.377,13.206-29.701,29.438-29.701
			c16.231,0,29.437,13.324,29.437,29.701C58.875,113.775,45.669,127.099,29.438,127.099z M29.438,71.698
			C15.412,71.698,4,83.228,4,97.399c0,14.171,11.412,25.699,25.438,25.699c14.026,0,25.437-11.528,25.437-25.699
			C54.875,83.228,43.464,71.698,29.438,71.698z"/>
	</g>
	<g>
		<path fill="#282D33" d="M64.093,64.411c-17.356,0-31.477-14.245-31.477-31.755S46.736,0.901,64.093,0.901
			S95.57,15.146,95.57,32.656S81.449,64.411,64.093,64.411z M64.093,4.901c-15.15,0-27.477,12.451-27.477,27.755
			c0,15.305,12.326,27.755,27.477,27.755c15.151,0,27.478-12.45,27.478-27.755C91.57,17.353,79.244,4.901,64.093,4.901z"/>
	</g>
	<g>
		<path fill="#282D33" d="M98.564,127.099c-16.233,0-29.439-13.323-29.439-29.699c0-16.377,13.206-29.7,29.439-29.7
			c0,0,0.001,0,0.002,0c7.854,0,15.243,3.095,20.81,8.715C124.938,82.029,128,89.481,128,97.399
			C128,113.775,114.795,127.099,98.564,127.099z M98.566,71.699c-0.001,0-0.001,0-0.002,0c-14.027,0-25.439,11.529-25.439,25.7
			s11.412,25.699,25.439,25.699c14.025,0,25.436-11.528,25.436-25.699c0-6.856-2.651-13.31-7.466-18.171
			C111.725,74.373,105.344,71.699,98.566,71.699z"/>
	</g>
	<g>
		<g>
			<g>
				<rect x="11.564" y="91.198" fill="#282D33" width="18.162" height="4"/>
			</g>
			<g>
				<rect x="11.564" y="99.599" fill="#282D33" width="18.162" height="4"/>
			</g>
		</g>
		<g>
			<path fill="#282D33" d="M29.981,112.961c-8.51,0-15.434-6.98-15.434-15.562s6.924-15.563,15.434-15.563
				c4.485,0,8.744,1.974,11.686,5.415l-3.041,2.6c-2.18-2.552-5.331-4.015-8.645-4.015c-6.305,0-11.434,5.187-11.434,11.563
				c0,6.375,5.129,11.562,11.434,11.562c3.313,0,6.464-1.463,8.645-4.015l3.041,2.6C38.725,110.987,34.466,112.961,29.981,112.961z"
				/>
		</g>
	</g>
	<g>
		<g>
			<path fill="#282D33" d="M66.504,35.97l-7.287-2.859c-2.884-1.85-3.49-3.881-3.49-5.259v-3.122c0-3.633,2.935-6.588,6.543-6.588
				h3.65c3.605,0,6.539,2.955,6.539,6.588v1.459h-4v-1.459c0-1.427-1.139-2.588-2.539-2.588h-3.65c-1.402,0-2.543,1.161-2.543,2.588
				v3.122c0,0.502,0.54,1.148,1.489,1.787l6.729,2.6L66.504,35.97z"/>
		</g>
		<g>
			<path fill="#282D33" d="M65.92,47.706h-3.65c-3.608,0-6.543-2.953-6.543-6.584v-1.461h4v1.461c0,1.425,1.141,2.584,2.543,2.584
				h3.65c1.4,0,2.539-1.159,2.539-2.584v-3.125c0-0.495-0.61-1.216-1.568-1.863l-6.412-2.491l1.449-3.729l6.965,2.749
				c2.333,1.498,3.566,3.342,3.566,5.334v3.125C72.459,44.753,69.525,47.706,65.92,47.706z"/>
		</g>
		<g>
			<rect x="62.369" y="13.863" fill="#282D33" width="4" height="6.85"/>
		</g>
		<g>
			<rect x="62.369" y="44.6" fill="#282D33" width="4" height="6.85"/>
		</g>
	</g>
	<g>
		<polygon fill="#282D33" points="98.563,98.165 87.428,85.47 90.436,82.833 98.563,92.099 106.692,82.832 109.698,85.471 		"/>
	</g>
	<g>
		<rect x="96.563" y="95.03" fill="#282D33" width="4" height="17.982"/>
	</g>
	<g>
		<rect x="90.451" y="95.601" fill="#282D33" width="16.221" height="4"/>
	</g>
	<g>
		<rect x="90.451" y="103.306" fill="#282D33" width="16.221" height="4"/>
	</g>
</g>
</svg>
