<?xml version="1.0" encoding="utf-8"?>
<!-- Generator: Adobe Illustrator 16.0.0, SVG Export Plug-In . SVG Version: 6.00 Build 0)  -->
<!DOCTYPE svg PUBLIC "-//W3C//DTD SVG 1.1//EN" "http://www.w3.org/Graphics/SVG/1.1/DTD/svg11.dtd">
<svg version="1.1" id="Layer_1" xmlns="http://www.w3.org/2000/svg" xmlns:xlink="http://www.w3.org/1999/xlink" x="0px" y="0px"
	 width="128px" height="128px" viewBox="0 0 128 128" enable-background="new 0 0 128 128" xml:space="preserve">
<g>
	<g>
		<g>
			<rect x="32.589" y="10.034" fill="#282D33" width="62.533" height="4"/>
		</g>
		<g>
			<polygon fill="#282D33" points="124.179,39.496 3.821,39.496 3.821,10.034 22.181,10.034 22.181,14.034 7.821,14.034 
				7.821,35.496 120.179,35.496 120.179,14.034 104.571,14.034 104.571,10.034 124.179,10.034 			"/>
		</g>
		<g>
			<g>
				<rect x="21.689" y="50.646" fill="#282D33" width="6.571" height="4"/>
			</g>
			<g>
				<rect x="34.697" y="50.646" fill="#282D33" width="6.571" height="4"/>
			</g>
			<g>
				<rect x="47.706" y="50.646" fill="#282D33" width="6.57" height="4"/>
			</g>
			<g>
				<rect x="60.715" y="50.646" fill="#282D33" width="6.571" height="4"/>
			</g>
			<g>
				<rect x="73.722" y="50.646" fill="#282D33" width="6.573" height="4"/>
			</g>
			<g>
				<rect x="86.728" y="50.646" fill="#282D33" width="6.576" height="4"/>
			</g>
			<g>
				<rect x="99.737" y="50.646" fill="#282D33" width="6.572" height="4"/>
			</g>
		</g>
		<g>
			<g>
				<rect x="21.689" y="63.175" fill="#282D33" width="6.571" height="4"/>
			</g>
			<g>
				<rect x="34.697" y="63.175" fill="#282D33" width="6.571" height="4"/>
			</g>
			<g>
				<rect x="47.706" y="63.175" fill="#282D33" width="6.57" height="4"/>
			</g>
			<g>
				<rect x="60.715" y="63.175" fill="#282D33" width="6.571" height="4"/>
			</g>
			<g>
				<rect x="73.722" y="63.175" fill="#282D33" width="6.573" height="4"/>
			</g>
			<g>
				<rect x="86.728" y="63.175" fill="#282D33" width="6.576" height="4"/>
			</g>
			<g>
				<rect x="99.737" y="63.175" fill="#282D33" width="6.572" height="4"/>
			</g>
		</g>
		<g>
			<g>
				<rect x="21.689" y="75.703" fill="#282D33" width="6.571" height="4"/>
			</g>
			<g>
				<rect x="34.697" y="75.703" fill="#282D33" width="6.571" height="4"/>
			</g>
			<g>
				<rect x="47.706" y="75.703" fill="#282D33" width="6.57" height="4"/>
			</g>
			<g>
				<rect x="60.715" y="75.703" fill="#282D33" width="6.571" height="4"/>
			</g>
		</g>
		<g>
			<g>
				<rect x="21.689" y="88.23" fill="#282D33" width="6.571" height="4"/>
			</g>
			<g>
				<rect x="34.697" y="88.23" fill="#282D33" width="6.571" height="4"/>
			</g>
			<g>
				<rect x="47.706" y="88.23" fill="#282D33" width="6.57" height="4"/>
			</g>
		</g>
		<g>
			<rect x="117.806" y="37.64" fill="#282D33" width="4" height="35.293"/>
		</g>
		<g>
			<polygon fill="#282D33" points="60.583,111.751 6.192,111.751 6.192,37.64 10.192,37.64 10.192,107.751 60.583,107.751 			"/>
		</g>
		<g>
			<g>
				<polygon fill="#282D33" points="107.49,26.209 95.708,26.209 95.708,22.209 103.49,22.209 103.49,4 95.708,4 95.708,0 107.49,0 
									"/>
			</g>
			<g>
				<polygon fill="#282D33" points="34.287,26.209 22.507,26.209 22.507,22.209 30.287,22.209 30.287,4 22.507,4 22.507,0 34.287,0 
									"/>
			</g>
		</g>
		<g>
			<rect x="49.961" y="22.137" fill="#282D33" width="28.075" height="4"/>
		</g>
	</g>
	<g>
		<path fill="#282D33" d="M94.065,128c-15.438,0-27.996-12.705-27.996-28.322s12.559-28.322,27.996-28.322
			c15.436,0,27.994,12.705,27.994,28.322S109.501,128,94.065,128z M94.065,75.355c-13.231,0-23.996,10.911-23.996,24.322
			S80.834,124,94.065,124c13.23,0,23.994-10.911,23.994-24.322S107.296,75.355,94.065,75.355z"/>
	</g>
	<g>
		<polygon fill="#282D33" points="88.243,109.683 79.956,101.294 82.802,98.483 88.243,103.991 105.12,86.901 107.966,89.712 		"/>
	</g>
</g>
</svg>
